<svg xmlns="http://www.w3.org/2000/svg" version="1.1" xmlns:xlink="http://www.w3.org/1999/xlink" xmlns:svgjs="http://svgjs.dev/svgjs" width="1500" height="1223" viewBox="0 0 1500 1223"><g transform="matrix(1,0,0,1,-0.30743596410661667,-1.9725806451613153)"><svg viewBox="0 0 304 248" data-background-color="#ffffff" preserveAspectRatio="xMidYMid meet" height="1223" width="1500" xmlns="http://www.w3.org/2000/svg" xmlns:xlink="http://www.w3.org/1999/xlink"><g id="tight-bounds" transform="matrix(1,0,0,1,0.06230702205894545,0.4000000000000057)"><svg viewBox="0 0 303.8753859558821 247.2" height="247.2" width="303.8753859558821"><g><svg viewBox="0 0 395.52 321.7521014163188" height="247.2" width="303.8753859558821"><g transform="matrix(1,0,0,1,0,198.85570672941176)"><svg viewBox="0 0 395.52 122.89639468690702" height="122.89639468690702" width="395.52"><g id="textblocktransform"><svg viewBox="0 0 395.52 122.89639468690702" height="122.89639468690702" width="395.52" id="textblock"><g><svg viewBox="0 0 395.52 122.89639468690702" height="122.89639468690702" width="395.52"><g transform="matrix(1,0,0,1,0,0)"><svg width="395.52" viewBox="2.29 -31.69 102.91999999999999 31.98" height="122.89639468690702" data-palette-color="#0074d9"><path d="M5.44-19.19L5.44 0 2.29 0 2.29-23.75 5.44-23.75 5.44-21.53 6.05-21.53Q6.88-22.83 8-23.45 9.11-24.07 11.06-24.07L11.06-24.07Q14.99-24.07 15.89-21.34L15.89-21.34 16.55-21.34Q17.36-22.61 18.6-23.34 19.85-24.07 21.8-24.07L21.8-24.07Q24.41-24.07 25.71-22.86 27-21.66 27-18.82L27-18.82 27 0 23.88 0 23.88-19.09Q23.83-20.31 23.12-20.86 22.41-21.41 20.78-21.41L20.78-21.41Q17.53-21.41 16.26-19.12L16.26-19.12 16.26 0 13.13 0 13.13-19.09Q13.09-20.31 12.38-20.86 11.67-21.41 10.08-21.41L10.08-21.41Q6.62-21.41 5.44-19.19L5.44-19.19ZM35.2-31.69L35.2-28.17 32.05-28.17 32.05-31.69 35.2-31.69ZM35.2-23.75L35.2 0 32.03 0 32.03-23.75 35.2-23.75ZM43.57-19.19L43.57 0 40.42 0 40.42-23.75 43.57-23.75 43.57-21.53 44.26-21.53Q44.89-22.75 45.94-23.41 46.99-24.07 48.55-24.07L48.55-24.07Q50.9-24.07 52.03-22.84 53.17-21.61 53.17-18.58L53.17-18.58Q53.17-17.92 53.12-17.02 53.07-16.11 52.97-15.41L52.97-15.41 49.95-15.41Q50-15.65 50.01-16.26 50.02-16.87 50.03-17.48 50.04-18.09 50.04-18.31L50.04-18.31Q50.04-20.12 49.43-20.76 48.82-21.41 47.48-21.41L47.48-21.41Q44.62-21.41 43.57-19.19L43.57-19.19ZM60.12-19.19L60.12 0 56.97 0 56.97-23.75 60.12-23.75 60.12-21.53 60.81-21.53Q61.44-22.75 62.49-23.41 63.54-24.07 65.1-24.07L65.1-24.07Q67.45-24.07 68.58-22.84 69.72-21.61 69.72-18.58L69.72-18.58Q69.72-17.92 69.67-17.02 69.62-16.11 69.52-15.41L69.52-15.41 66.5-15.41Q66.55-15.65 66.56-16.26 66.57-16.87 66.58-17.48 66.59-18.09 66.59-18.31L66.59-18.31Q66.59-20.12 65.98-20.76 65.37-21.41 64.03-21.41L64.03-21.41Q61.17-21.41 60.12-19.19L60.12-19.19ZM80.65 0.29L80.65 0.29Q76.67 0.29 75.04-1.07 73.4-2.44 73.28-5.62L73.28-5.62Q73.13-7.42 73.09-9.63 73.04-11.84 73.09-14.09 73.13-16.33 73.28-18.16L73.28-18.16Q73.4-21.34 75.05-22.71 76.7-24.07 80.65-24.07L80.65-24.07Q84.66-24.07 86.26-22.71 87.86-21.34 87.98-18.16L87.98-18.16Q88.12-16.36 88.17-14.15 88.22-11.94 88.17-9.7 88.12-7.47 87.98-5.62L87.98-5.62Q87.86-2.47 86.26-1.09 84.66 0.29 80.65 0.29ZM80.65-2.44L80.65-2.44Q82.9-2.44 83.85-2.99 84.8-3.54 84.88-4.81L84.88-4.81Q85.12-8.62 85.12-11.89 85.12-15.16 84.88-18.97L84.88-18.97Q84.8-20.26 83.88-20.8 82.95-21.34 80.65-21.34L80.65-21.34Q78.36-21.34 77.42-20.8 76.48-20.26 76.41-18.97L76.41-18.97Q76.19-15.16 76.17-11.88 76.16-8.59 76.41-4.81L76.41-4.81Q76.45-3.54 77.44-2.99 78.43-2.44 80.65-2.44ZM95.62-19.19L95.62 0 92.47 0 92.47-23.75 95.62-23.75 95.62-21.53 96.3-21.53Q96.94-22.75 97.99-23.41 99.04-24.07 100.6-24.07L100.6-24.07Q102.94-24.07 104.08-22.84 105.21-21.61 105.21-18.58L105.21-18.58Q105.21-17.92 105.16-17.02 105.11-16.11 105.02-15.41L105.02-15.41 101.99-15.41Q102.04-15.65 102.05-16.26 102.06-16.87 102.07-17.48 102.09-18.09 102.09-18.31L102.09-18.31Q102.09-20.12 101.48-20.76 100.87-21.41 99.52-21.41L99.52-21.41Q96.67-21.41 95.62-19.19L95.62-19.19Z" opacity="1" transform="matrix(1,0,0,1,0,0)" fill="#0074d9" class="wordmark-text-0" data-fill-palette-color="primary" id="text-0"></path></svg></g></svg></g></svg></g></svg></g><g transform="matrix(1,0,0,1,112.83859127134724,0)"><svg viewBox="0 0 169.8428174573055 169.8428174573055" height="169.8428174573055" width="169.8428174573055"><g><svg></svg></g><g id="icon-0"><svg viewBox="0 0 169.8428174573055 169.8428174573055" height="169.8428174573055" width="169.8428174573055"><g></g><g transform="matrix(1,0,0,1,33.968563491461104,49.4592475004721)"><svg viewBox="0 0 101.90569047438329 70.9243224563613" height="70.9243224563613" width="101.90569047438329"><g><svg xmlns="http://www.w3.org/2000/svg" xmlns:xlink="http://www.w3.org/1999/xlink" version="1.1" x="0" y="0" viewBox="0 15.201 100 69.59800000000001" enable-background="new 0 0 100 100" xml:space="preserve" height="70.9243224563613" width="101.90569047438329" class="icon-dxe-0" data-fill-palette-color="quaternary" id="dxe-0"><g fill="#ffffff" data-fill-palette-color="quaternary"><polygon points="23.951,42.275 44.001,42.275 44.001,23.201 0,15.201 0,84.799 44.001,76.801 44.001,57.727 23.951,57.727  " fill="#ffffff" data-fill-palette-color="quaternary"></polygon><path d="M56.002 23.201V42.275H44.001V57.727H56.002V76.801L100 84.799V15.201zM94.4 78.09L61.601 72.127V57.727H71.221V64.262L79.635 57.129 88.053 50 79.636 42.871 71.222 35.739V42.274H61.602V27.874L94.4 21.911z" fill="#ffffff" data-fill-palette-color="quaternary"></path></g></svg></g></svg></g></svg></g></svg></g><g></g></svg></g><defs></defs><mask id="1f1d9ea4-99de-4a06-ba83-687fc1f5ec5f"><g id="SvgjsG2270"><svg viewBox="0 0 303.8753859558821 247.2" height="247.2" width="303.8753859558821"><g><svg viewBox="0 0 395.52 321.7521014163188" height="247.2" width="303.8753859558821"><g transform="matrix(1,0,0,1,0,198.85570672941176)"><svg viewBox="0 0 395.52 122.89639468690702" height="122.89639468690702" width="395.52"><g id="SvgjsG2269"><svg viewBox="0 0 395.52 122.89639468690702" height="122.89639468690702" width="395.52" id="SvgjsSvg2268"><g><svg viewBox="0 0 395.52 122.89639468690702" height="122.89639468690702" width="395.52"><g transform="matrix(1,0,0,1,0,0)"><svg width="395.52" viewBox="2.29 -31.69 102.91999999999999 31.98" height="122.89639468690702" data-palette-color="#0074d9"><path d="M5.44-19.19L5.44 0 2.29 0 2.29-23.75 5.44-23.75 5.44-21.53 6.05-21.53Q6.88-22.83 8-23.45 9.11-24.07 11.06-24.07L11.06-24.07Q14.99-24.07 15.89-21.34L15.89-21.34 16.55-21.34Q17.36-22.61 18.6-23.34 19.85-24.07 21.8-24.07L21.8-24.07Q24.41-24.07 25.71-22.86 27-21.66 27-18.82L27-18.82 27 0 23.88 0 23.88-19.09Q23.83-20.31 23.12-20.86 22.41-21.41 20.78-21.41L20.78-21.41Q17.53-21.41 16.26-19.12L16.26-19.12 16.26 0 13.13 0 13.13-19.09Q13.09-20.31 12.38-20.86 11.67-21.41 10.08-21.41L10.08-21.41Q6.62-21.41 5.44-19.19L5.44-19.19ZM35.2-31.69L35.2-28.17 32.05-28.17 32.05-31.69 35.2-31.69ZM35.2-23.75L35.2 0 32.03 0 32.03-23.75 35.2-23.75ZM43.57-19.19L43.57 0 40.42 0 40.42-23.75 43.57-23.75 43.57-21.53 44.26-21.53Q44.89-22.75 45.94-23.41 46.99-24.07 48.55-24.07L48.55-24.07Q50.9-24.07 52.03-22.84 53.17-21.61 53.17-18.58L53.17-18.58Q53.17-17.92 53.12-17.02 53.07-16.11 52.97-15.41L52.97-15.41 49.95-15.41Q50-15.65 50.01-16.26 50.02-16.87 50.03-17.48 50.04-18.09 50.04-18.31L50.04-18.31Q50.04-20.12 49.43-20.76 48.82-21.41 47.48-21.41L47.48-21.41Q44.62-21.41 43.57-19.19L43.57-19.19ZM60.12-19.19L60.12 0 56.97 0 56.97-23.75 60.12-23.75 60.12-21.53 60.81-21.53Q61.44-22.75 62.49-23.41 63.54-24.07 65.1-24.07L65.1-24.07Q67.45-24.07 68.58-22.84 69.72-21.61 69.72-18.58L69.72-18.58Q69.72-17.92 69.67-17.02 69.62-16.11 69.52-15.41L69.52-15.41 66.5-15.41Q66.55-15.65 66.56-16.26 66.57-16.87 66.58-17.48 66.59-18.09 66.59-18.31L66.59-18.31Q66.59-20.12 65.98-20.76 65.37-21.41 64.03-21.41L64.03-21.41Q61.17-21.41 60.12-19.19L60.12-19.19ZM80.65 0.29L80.65 0.29Q76.67 0.29 75.04-1.07 73.4-2.44 73.28-5.62L73.28-5.62Q73.13-7.42 73.09-9.63 73.04-11.84 73.09-14.09 73.13-16.33 73.28-18.16L73.28-18.16Q73.4-21.34 75.05-22.71 76.7-24.07 80.65-24.07L80.65-24.07Q84.66-24.07 86.26-22.71 87.86-21.34 87.98-18.16L87.98-18.16Q88.12-16.36 88.17-14.15 88.22-11.94 88.17-9.7 88.12-7.47 87.98-5.62L87.98-5.62Q87.86-2.47 86.26-1.09 84.66 0.29 80.65 0.29ZM80.65-2.44L80.65-2.44Q82.9-2.44 83.85-2.99 84.8-3.54 84.88-4.81L84.88-4.81Q85.12-8.62 85.12-11.89 85.12-15.16 84.88-18.97L84.88-18.97Q84.8-20.26 83.88-20.8 82.95-21.34 80.65-21.34L80.65-21.34Q78.36-21.34 77.42-20.8 76.48-20.26 76.41-18.97L76.41-18.97Q76.19-15.16 76.17-11.88 76.16-8.59 76.41-4.81L76.41-4.81Q76.45-3.54 77.44-2.99 78.43-2.44 80.65-2.44ZM95.62-19.19L95.62 0 92.47 0 92.47-23.75 95.62-23.75 95.62-21.53 96.3-21.53Q96.94-22.75 97.99-23.41 99.04-24.07 100.6-24.07L100.6-24.07Q102.94-24.07 104.08-22.84 105.21-21.61 105.21-18.58L105.21-18.58Q105.21-17.92 105.16-17.02 105.11-16.11 105.02-15.41L105.02-15.41 101.99-15.41Q102.04-15.65 102.05-16.26 102.06-16.87 102.07-17.48 102.09-18.09 102.09-18.31L102.09-18.31Q102.09-20.12 101.48-20.76 100.87-21.41 99.52-21.41L99.52-21.41Q96.67-21.41 95.62-19.19L95.62-19.19Z" opacity="1" transform="matrix(1,0,0,1,0,0)" fill="black" class="wordmark-text-0" id="SvgjsPath2267"></path></svg></g></svg></g></svg></g></svg></g><g transform="matrix(1,0,0,1,112.83859127134724,0)"><svg viewBox="0 0 169.8428174573055 169.8428174573055" height="169.8428174573055" width="169.8428174573055"><g><svg></svg></g><g id="SvgjsG2266"><svg viewBox="0 0 169.8428174573055 169.8428174573055" height="169.8428174573055" width="169.8428174573055"><g><path transform="scale(1.69843,1.69843)" d="M30 100c-16.569 0-30-13.431-30-30v-40c0-16.569 13.431-30 30-30h40c16.569 0 30 13.431 30 30v40c0 16.569-13.431 30-30 30z" fill="white" fill-rule="nonzero" stroke="none" stroke-width="1" stroke-linecap="butt" stroke-linejoin="miter" stroke-miterlimit="10" stroke-dasharray="" stroke-dashoffset="0" font-family="none" font-weight="none" font-size="none" text-anchor="none" style="mix-blend-mode: normal"></path></g><g transform="matrix(1,0,0,1,33.968563491461104,49.4592475004721)"><svg viewBox="0 0 101.90569047438329 70.9243224563613" height="70.9243224563613" width="101.90569047438329"><g><svg xmlns="http://www.w3.org/2000/svg" xmlns:xlink="http://www.w3.org/1999/xlink" version="1.1" x="0" y="0" viewBox="0 15.201 100 69.59800000000001" enable-background="new 0 0 100 100" xml:space="preserve" height="70.9243224563613" width="101.90569047438329" class="icon-dxe-0" data-fill-palette-color="quaternary" id="SvgjsSvg2265"><g fill="black"><polygon points="23.951,42.275 44.001,42.275 44.001,23.201 0,15.201 0,84.799 44.001,76.801 44.001,57.727 23.951,57.727  " fill="black"></polygon><path d="M56.002 23.201V42.275H44.001V57.727H56.002V76.801L100 84.799V15.201zM94.4 78.09L61.601 72.127V57.727H71.221V64.262L79.635 57.129 88.053 50 79.636 42.871 71.222 35.739V42.274H61.602V27.874L94.4 21.911z" fill="black"></path></g></svg></g></svg></g></svg></g></svg></g><g></g></svg></g><defs><mask></mask></defs></svg><rect width="303.8753859558821" height="247.2" fill="black" stroke="none" visibility="hidden"></rect></g></mask><linearGradient x1="0" x2="1" y1="0.578" y2="0.595" id="7a5873e1-7083-4fc7-8629-140bd519af14"><stop stop-color="#6ee2f5" offset="0"></stop><stop stop-color="#6454f0" offset="1"></stop></linearGradient><rect width="303.8753859558821" height="247.20000000000002" fill="url(#7a5873e1-7083-4fc7-8629-140bd519af14)" mask="url(#1f1d9ea4-99de-4a06-ba83-687fc1f5ec5f)" data-fill-palette-color="accent"></rect></svg><rect width="303.8753859558821" height="247.2" fill="none" stroke="none" visibility="hidden"></rect></g></svg></g></svg>