<?xml version="1.0" standalone="no"?><!DOCTYPE svg PUBLIC "-//W3C//DTD SVG 1.1//EN" "http://www.w3.org/Graphics/SVG/1.1/DTD/svg11.dtd"><svg t="1721738415480" class="icon" viewBox="0 0 1024 1024" version="1.1" xmlns="http://www.w3.org/2000/svg" p-id="4404" xmlns:xlink="http://www.w3.org/1999/xlink" width="256" height="256"><path d="M573.44 798.72c0-260.15744-210.88256-471.04-471.04-471.04a40.96 40.96 0 0 1-40.96-40.96v-30.72A71.68 71.68 0 0 1 133.12 184.32H880.64a81.92 81.92 0 0 1 81.92 81.92v491.52a81.92 81.92 0 0 1-81.92 81.92H614.4a40.96 40.96 0 0 1-40.96-40.96zM102.4 839.68a40.96 40.96 0 1 1 0-81.92 40.96 40.96 0 0 1 0 81.92z m204.8-40.96a40.96 40.96 0 1 1-81.92 0 122.88 122.88 0 0 0-122.88-122.88 40.96 40.96 0 1 1 0-81.92c113.11104 0 204.8 91.68896 204.8 204.8z m163.84 0a40.96 40.96 0 1 1-81.92 0c0-158.35136-128.36864-286.72-286.72-286.72a40.96 40.96 0 1 1 0-81.92c203.59168 0 368.64 165.04832 368.64 368.64z" p-id="4405" fill="#ffffff"></path></svg>