<?xml version="1.0" standalone="no"?><!DOCTYPE svg PUBLIC "-//W3C//DTD SVG 1.1//EN" "http://www.w3.org/Graphics/SVG/1.1/DTD/svg11.dtd"><svg t="1721738486038" class="icon" viewBox="0 0 1024 1024" version="1.1" xmlns="http://www.w3.org/2000/svg" p-id="7054" xmlns:xlink="http://www.w3.org/1999/xlink" width="256" height="256"><path d="M950.857143 512q0 89.161143-34.889143 170.276571t-93.696 139.995429-139.995429 93.696-170.276571 34.889143-170.276571-34.889143-139.995429-93.696-93.696-139.995429-34.889143-170.276571q0-104.009143 46.006857-196.022857t129.462857-154.258286q24.576-18.285714 54.564571-14.262857t47.689143 28.598857q18.285714 23.990857 13.970286 53.979429t-28.306286 48.274286q-56.027429 42.276571-86.601143 103.424t-30.573714 130.267429q0 59.465143 23.113143 113.444571t62.537143 93.403429 93.403429 62.537143 113.444571 23.113143 113.444571-23.113143 93.403429-62.537143 62.537143-93.403429 23.113143-113.444571q0-69.12-30.573714-130.267429t-86.601143-103.424q-23.990857-18.285714-28.306286-48.274286t13.970286-53.979429q17.700571-24.576 47.981714-28.598857t54.272 14.262857q83.456 62.317714 129.462857 154.258286t46.006857 196.022857zM585.142857 73.142857l0 365.714286q0 29.696-21.723429 51.419429t-51.419429 21.723429-51.419429-21.723429-21.723429-51.419429l0-365.714286q0-29.696 21.723429-51.419429t51.419429-21.723429 51.419429 21.723429 21.723429 51.419429z" fill="#ffffff" p-id="7055"></path></svg>