<?xml version="1.0" standalone="no"?><!DOCTYPE svg PUBLIC "-//W3C//DTD SVG 1.1//EN" "http://www.w3.org/Graphics/SVG/1.1/DTD/svg11.dtd"><svg t="1721747277473" class="icon" viewBox="0 0 1024 1024" version="1.1" xmlns="http://www.w3.org/2000/svg" p-id="4267" xmlns:xlink="http://www.w3.org/1999/xlink" width="256" height="256"><path d="M922.88 472a98.24 98.24 0 0 1-80.96-64l-9.92-26.88a98.24 98.24 0 0 1 18.88-100.48 77.44 77.44 0 0 0-4.48-108.48 464.32 464.32 0 0 0-47.36-39.04 77.44 77.44 0 0 0-107.52 16.96 98.24 98.24 0 0 1-96 38.72l-29.76-4.8a98.24 98.24 0 0 1-77.76-66.56 77.44 77.44 0 0 0-96-50.24 464.32 464.32 0 0 0-57.28 22.08A77.44 77.44 0 0 0 295.68 192a98.24 98.24 0 0 1-14.08 100.48l-19.2 23.36a98.24 98.24 0 0 1-96 33.92 77.44 77.44 0 0 0-91.52 58.24q-3.52 15.04-6.08 32t-3.84 32a77.44 77.44 0 0 0 68.8 83.84 98.24 98.24 0 0 1 80.96 64l10.88 28.16a98.24 98.24 0 0 1-18.88 100.48 76.16 76.16 0 0 0 4.48 106.56 464.32 464.32 0 0 0 48.32 40 77.44 77.44 0 0 0 107.52-16.96 98.24 98.24 0 0 1 96-38.72l29.76 4.8a98.24 98.24 0 0 1 77.76 66.56 77.44 77.44 0 0 0 96 50.24 464.32 464.32 0 0 0 57.28-22.08 77.44 77.44 0 0 0 38.4-101.44 98.24 98.24 0 0 1 13.76-101.44l19.2-23.36a98.24 98.24 0 0 1 96-33.92 77.44 77.44 0 0 0 91.52-58.24q3.52-15.04 6.08-32t3.84-32a77.44 77.44 0 0 0-69.76-84.48z m-265.6 58.56a130.56 130.56 0 1 1-108.16-149.76 130.56 130.56 0 0 1 108.48 150.08z" fill="#ffffff" p-id="4268"></path></svg>